<?xml version="1.0" encoding="UTF-8"?>
<svg id="b" xmlns="http://www.w3.org/2000/svg" version="1.1" viewBox="0 0 53 62.8">
  <defs>
    <style>
      .cls-1 {
        fill: #000;
      }

      .cls-1, .cls-2 {
        stroke: #000;
        stroke-linecap: round;
        stroke-linejoin: round;
        stroke-width: 2px;
      }

      .cls-2 {
        fill: none;
      }
    </style>
  </defs>
  <polygon class="cls-2" points="35.2 25.5 26.5 20.5 26.5 57.3 35.2 62.4 35.2 25.5"/>
  <polygon class="cls-2" points="26.5 20.5 26.5 30.5 17.8 25.5 9.1 20.5 9.1 27.2 17.8 32.2 17.8 42.3 9.1 37.2 9.1 57.3 .4 52.3 .4 5.4 17.8 15.4 26.5 20.5"/>
  <polygon class="cls-1" points="17.8 32.2 17.8 42.3 26.5 37.2 26.5 30.5 23.6 28.8 17.8 32.2"/>
  <polygon class="cls-1" points="9.1 20.5 9.1 27.2 14.9 23.8 9.1 20.5"/>
  <polygon class="cls-1" points="9.1 57.3 17.8 52.3 17.8 42.3 9.1 37.2 9.1 57.3"/>
  <polygon class="cls-2" points="17.8 25.5 14.9 23.8 9.1 27.2 17.8 32.2 23.6 28.8 17.8 25.5"/>
  <polygon class="cls-1" points="52.6 5.4 52.6 15.5 43.9 20.5 43.9 57.3 35.2 62.4 35.2 25.5 26.5 30.5 26.5 20.5 52.6 5.4"/>
  <polygon class="cls-2" points="52.6 5.4 26.5 20.5 17.8 15.4 .4 5.4 9.1 .4 26.5 10.4 43.9 .4 52.6 5.4"/>
</svg>