<?xml version="1.0" encoding="utf-8"?>
<!-- Generator: Adobe Illustrator 28.1.0, SVG Export Plug-In . SVG Version: 6.00 Build 0)  -->
<svg version="1.1" id="Layer_1" xmlns="http://www.w3.org/2000/svg" xmlns:xlink="http://www.w3.org/1999/xlink" x="0px" y="0px"
	 viewBox="0 0 32 32" style="enable-background:new 0 0 32 32;" xml:space="preserve">
<style type="text/css">
	.st0{fill:#FFFFFF;}
</style>
<path class="st0" d="M28.8,3.5l-4.2-2.4c-0.1,0-0.1,0-0.2,0L16,5.9L7.7,1.1c-0.1,0-0.1,0-0.2,0L3.3,3.5c-0.1,0-0.1,0.1-0.1,0.2v22.7
	c0,0.1,0,0.1,0.1,0.2L7.5,29c0,0,0,0,0,0c0,0,0.1,0,0.1,0s0.1,0,0.1,0c0,0,0,0,0,0l4.2-2.4c0.1,0,0.1-0.1,0.1-0.2v-4.7l3.8-2.2v9.4
	c0,0.1,0,0.1,0.1,0.2l4.2,2.5c0,0,0,0,0,0c0,0,0,0,0,0c0,0,0.1,0,0.1,0s0.1,0,0.1,0c0,0,0,0,0,0c0,0,0,0,0,0l4.2-2.5
	c0.1,0,0.1-0.1,0.1-0.2V11.1l4.1-2.4c0.1,0,0.1-0.1,0.1-0.2V3.7C28.9,3.6,28.8,3.6,28.8,3.5z M14.2,15.1l-1.4,0.8l-1,0.6L8,14.3
	l1.3-0.8l1.1-0.6l1.6,0.9L14.2,15.1z M7.6,1.5l8.3,4.8c0.1,0,0.1,0,0.2,0l8.3-4.8l3.8,2.2L16,10.8l-4.1-2.4L3.8,3.7L7.6,1.5z
	 M7.5,18.9c-0.1,0-0.1,0.1-0.1,0.2v9.4l-3.8-2.2V4.1l8.1,4.7l4.1,2.4v4.4l-1-0.6l-0.1,0h0l-0.1,0l-2.8-1.6c0,0,0,0,0,0l-1.1-0.6
	l-2.7-1.5l-0.4-0.2c0,0-0.1,0-0.1,0c0,0-0.1,0-0.1,0c-0.1,0-0.1,0.1-0.1,0.2v3.2c0,0.1,0,0.1,0.1,0.2c0,0,0,0,0,0c0,0,0,0,0,0
	l4.1,2.4v4.4l-3.9-2.3C7.6,18.9,7.6,18.9,7.5,18.9z M16.2,19.1V16l3.8-2.2V31l-3.8-2.2V19.1z"/>
</svg>
